<svg width="22" height="28" viewBox="0 0 22 28" fill="none" xmlns="http://www.w3.org/2000/svg">
<path d="M0.5 27.5V17C0.5 16.175 0.794 15.469 1.382 14.882C1.97 14.295 2.676 14.001 3.5 14H5V11H3.5C2.675 11 1.969 10.7065 1.382 10.1195C0.795 9.5325 0.501 8.826 0.5 8V3.5C0.5 2.675 0.794 1.969 1.382 1.382C1.97 0.795 2.676 0.501 3.5 0.5H18.5C19.325 0.5 20.0315 0.794 20.6195 1.382C21.2075 1.97 21.501 2.676 21.5 3.5V8C21.5 8.825 21.2065 9.5315 20.6195 10.1195C20.0325 10.7075 19.326 11.001 18.5 11H17V14H18.5C19.325 14 20.0315 14.294 20.6195 14.882C21.2075 15.47 21.501 16.176 21.5 17V27.5H18.5V23H3.5V27.5H0.5ZM8 14H14V11H8V14Z" fill="#003266"/>
</svg>
