<svg width="30" height="18" viewBox="0 0 30 18" fill="none" xmlns="http://www.w3.org/2000/svg">
<path d="M28.5 3.5H1.5C1.10218 3.5 0.720644 3.34196 0.43934 3.06066C0.158035 2.77936 0 2.39782 0 2C0 1.60218 0.158035 1.22064 0.43934 0.93934C0.720644 0.658035 1.10218 0.5 1.5 0.5H28.5C28.8978 0.5 29.2794 0.658035 29.5607 0.93934C29.842 1.22064 30 1.60218 30 2C30 2.39782 29.842 2.77936 29.5607 3.06066C29.2794 3.34196 28.8978 3.5 28.5 3.5ZM23.5 10.5H6.5C6.10218 10.5 5.72064 10.342 5.43934 10.0607C5.15804 9.77936 5 9.39782 5 9C5 8.60218 5.15804 8.22064 5.43934 7.93934C5.72064 7.65804 6.10218 7.5 6.5 7.5H23.5C23.8978 7.5 24.2794 7.65804 24.5607 7.93934C24.842 8.22064 25 8.60218 25 9C25 9.39782 24.842 9.77936 24.5607 10.0607C24.2794 10.342 23.8978 10.5 23.5 10.5ZM17.5 17.5H12.5C12.1022 17.5 11.7206 17.342 11.4393 17.0607C11.158 16.7794 11 16.3978 11 16C11 15.6022 11.158 15.2206 11.4393 14.9393C11.7206 14.658 12.1022 14.5 12.5 14.5H17.5C17.8978 14.5 18.2794 14.658 18.5607 14.9393C18.842 15.2206 19 15.6022 19 16C19 16.3978 18.842 16.7794 18.5607 17.0607C18.2794 17.342 17.8978 17.5 17.5 17.5Z" fill="#003266"/>
</svg>
