<svg width="32" height="32" viewBox="0 0 32 32" fill="none" xmlns="http://www.w3.org/2000/svg">
<circle cx="16" cy="16" r="16" fill="white"/>
<path d="M20.5999 9.82C19.9163 9.03962 19.5396 8.03743 19.5399 7H16.4499V19.4C16.4261 20.071 16.1428 20.7066 15.6597 21.1729C15.1766 21.6393 14.5314 21.8999 13.8599 21.9C12.4399 21.9 11.2599 20.74 11.2599 19.3C11.2599 17.58 12.9199 16.29 14.6299 16.82V13.66C11.1799 13.2 8.15991 15.88 8.15991 19.3C8.15991 22.63 10.9199 25 13.8499 25C16.9899 25 19.5399 22.45 19.5399 19.3V13.01C20.7929 13.9099 22.2973 14.3926 23.8399 14.39V11.3C23.8399 11.3 21.9599 11.39 20.5999 9.82Z" fill="#027FFF"/>
</svg>
