<svg width="22" height="22" viewBox="0 0 22 22" fill="none" xmlns="http://www.w3.org/2000/svg">
<path fill-rule="evenodd" clip-rule="evenodd" d="M16.127 1.46451C15.9201 1.13397 15.6153 0.876148 15.255 0.726934C14.8948 0.577721 14.497 0.544541 14.117 0.632014L11.42 1.25151C11.1436 1.31504 10.8564 1.31504 10.58 1.25151L7.88296 0.632014C7.50295 0.544541 7.10513 0.577721 6.74487 0.726934C6.38461 0.876148 6.07983 1.13397 5.87296 1.46451L4.40296 3.81051C4.25296 4.05051 4.05046 4.25301 3.81046 4.40451L1.46446 5.87451C1.13448 6.0812 0.877039 6.38549 0.727858 6.74513C0.578677 7.10478 0.545159 7.50195 0.631957 7.88151L1.25146 10.5815C1.31475 10.8574 1.31475 11.1441 1.25146 11.42L0.631957 14.1185C0.544822 14.4983 0.578171 14.8958 0.727368 15.2557C0.876565 15.6157 1.1342 15.9202 1.46446 16.127L3.81046 17.597C4.05046 17.747 4.25296 17.9495 4.40446 18.1895L5.87446 20.5355C6.29746 21.212 7.10446 21.5465 7.88296 21.368L10.58 20.7485C10.8564 20.685 11.1436 20.685 11.42 20.7485L14.1185 21.368C14.4982 21.4551 14.8957 21.4218 15.2557 21.2726C15.6156 21.1234 15.9202 20.8658 16.127 20.5355L17.597 18.1895C17.747 17.9495 17.9495 17.747 18.1895 17.597L20.537 16.127C20.8672 15.9199 21.1247 15.6151 21.2737 15.2548C21.4226 14.8946 21.4556 14.4969 21.368 14.117L20.75 11.42C20.6864 11.1436 20.6864 10.8564 20.75 10.58L21.3695 7.88151C21.4567 7.50189 21.4236 7.1045 21.2747 6.74456C21.1258 6.38462 20.8684 6.08 20.5385 5.87301L18.191 4.40301C17.9513 4.25274 17.7487 4.05018 17.5985 3.81051L16.127 1.46451ZM15.3725 7.65501C15.4652 7.48441 15.4882 7.28448 15.4366 7.09727C15.3849 6.91007 15.2627 6.75019 15.0956 6.65128C14.9285 6.55237 14.7295 6.52213 14.5405 6.56694C14.3516 6.61175 14.1874 6.7281 14.0825 6.89151L10.16 13.5305L7.79146 11.2625C7.72119 11.1904 7.63712 11.1331 7.54424 11.0942C7.45137 11.0552 7.3516 11.0354 7.2509 11.0358C7.15019 11.0362 7.0506 11.057 6.95807 11.0967C6.86554 11.1365 6.78196 11.1945 6.71233 11.2672C6.6427 11.34 6.58843 11.426 6.55277 11.5202C6.5171 11.6144 6.50077 11.7148 6.50475 11.8154C6.50873 11.916 6.53293 12.0148 6.57592 12.1059C6.61891 12.197 6.6798 12.2785 6.75496 12.3455L9.80596 15.269C9.88762 15.3471 9.98586 15.4057 10.0933 15.4405C10.2008 15.4753 10.3148 15.4853 10.4267 15.4699C10.5386 15.4545 10.6456 15.414 10.7397 15.3514C10.8338 15.2888 10.9125 15.2058 10.97 15.1085L15.3725 7.65501Z" fill="#67E06B"/>
</svg>
