<svg width="65" height="65" viewBox="0 0 65 65" fill="none" xmlns="http://www.w3.org/2000/svg">
    <path d="M37.8332 5.83325H16.4998C15.0853 5.83325 13.7288 6.39515 12.7286 7.39535C11.7284 8.39554 11.1665 9.7521 11.1665 11.1666V53.8333C11.1665 55.2477 11.7284 56.6043 12.7286 57.6045C13.7288 58.6047 15.0853 59.1666 16.4998 59.1666H48.4998C49.9143 59.1666 51.2709 58.6047 52.2711 57.6045C53.2713 56.6043 53.8332 55.2477 53.8332 53.8333V21.8333L37.8332 5.83325ZM36.4998 43.1666V51.1666H28.4998V43.1666H21.8332L32.4998 32.4999L43.1665 43.1666H36.4998ZM35.1665 24.4999V9.83325L49.8332 24.4999H35.1665Z" fill="#003266"/>
    </svg>
    